<mxfile host="app.diagrams.net" modified="2021-12-23T14:36:03.524Z" agent="5.0 (Windows NT 10.0; Win64; x64) AppleWebKit/537.36 (KHTML, like Gecko) Chrome/95.0.4638.69 Safari/537.36" etag="g8B4q4AiwNdN4zG4mp-Z" version="16.0.3" type="github" pages="4">
  <diagram id="qlyhx09nTGPQ7Nj6pgr8" name="Chess Clock Main">
    <mxGraphModel dx="1038" dy="547" grid="1" gridSize="10" guides="1" tooltips="1" connect="1" arrows="1" fold="1" page="1" pageScale="1" pageWidth="850" pageHeight="1100" math="0" shadow="0">
      <root>
        <mxCell id="0" />
        <mxCell id="1" parent="0" />
        <mxCell id="6p9IiqKJaWgEn5XhOLN3-1" value="" style="ellipse;html=1;shape=startState;fillColor=#000000;strokeColor=#ff0000;" vertex="1" parent="1">
          <mxGeometry x="410" y="30" width="30" height="30" as="geometry" />
        </mxCell>
        <mxCell id="6p9IiqKJaWgEn5XhOLN3-2" value="" style="edgeStyle=orthogonalEdgeStyle;html=1;verticalAlign=bottom;endArrow=open;endSize=8;strokeColor=#ff0000;rounded=0;" edge="1" source="6p9IiqKJaWgEn5XhOLN3-1" parent="1">
          <mxGeometry relative="1" as="geometry">
            <mxPoint x="425" y="120" as="targetPoint" />
          </mxGeometry>
        </mxCell>
        <mxCell id="6p9IiqKJaWgEn5XhOLN3-3" value="State 0&lt;br&gt;Stopped State (Set Mode)&lt;br&gt;Sets Time control For Current Game" style="ellipse;whiteSpace=wrap;html=1;" vertex="1" parent="1">
          <mxGeometry x="333" y="120" width="185" height="150" as="geometry" />
        </mxCell>
        <mxCell id="6p9IiqKJaWgEn5XhOLN3-4" value="System start" style="text;html=1;align=center;verticalAlign=middle;resizable=0;points=[];autosize=1;strokeColor=none;fillColor=none;" vertex="1" parent="1">
          <mxGeometry x="390" y="10" width="80" height="20" as="geometry" />
        </mxCell>
        <mxCell id="6p9IiqKJaWgEn5XhOLN3-5" value="State 1&lt;br&gt;Running" style="ellipse;whiteSpace=wrap;html=1;" vertex="1" parent="1">
          <mxGeometry x="610" y="400" width="180" height="140" as="geometry" />
        </mxCell>
        <mxCell id="6p9IiqKJaWgEn5XhOLN3-6" value="" style="curved=1;endArrow=classic;html=1;rounded=0;entryX=0.5;entryY=0;entryDx=0;entryDy=0;exitX=1;exitY=1;exitDx=0;exitDy=0;" edge="1" parent="1" source="6p9IiqKJaWgEn5XhOLN3-3" target="6p9IiqKJaWgEn5XhOLN3-5">
          <mxGeometry width="50" height="50" relative="1" as="geometry">
            <mxPoint x="518" y="200" as="sourcePoint" />
            <mxPoint x="700" y="310" as="targetPoint" />
            <Array as="points">
              <mxPoint x="560" y="240" />
              <mxPoint x="720" y="248" />
            </Array>
          </mxGeometry>
        </mxCell>
        <mxCell id="6p9IiqKJaWgEn5XhOLN3-15" value="Start" style="edgeLabel;html=1;align=center;verticalAlign=middle;resizable=0;points=[];fontSize=17;rotation=55;" vertex="1" connectable="0" parent="6p9IiqKJaWgEn5XhOLN3-6">
          <mxGeometry x="0.029" y="-21" relative="1" as="geometry">
            <mxPoint as="offset" />
          </mxGeometry>
        </mxCell>
        <mxCell id="6p9IiqKJaWgEn5XhOLN3-7" value="State 2&lt;br&gt;Paused" style="ellipse;whiteSpace=wrap;html=1;direction=east;" vertex="1" parent="1">
          <mxGeometry x="50" y="400" width="180" height="140" as="geometry" />
        </mxCell>
        <mxCell id="6p9IiqKJaWgEn5XhOLN3-9" value="" style="curved=1;endArrow=classic;html=1;rounded=0;exitX=1;exitY=0;exitDx=0;exitDy=0;entryX=0;entryY=0;entryDx=0;entryDy=0;" edge="1" parent="1" source="6p9IiqKJaWgEn5XhOLN3-7" target="6p9IiqKJaWgEn5XhOLN3-5">
          <mxGeometry width="50" height="50" relative="1" as="geometry">
            <mxPoint x="370" y="430" as="sourcePoint" />
            <mxPoint x="420" y="380" as="targetPoint" />
            <Array as="points">
              <mxPoint x="430" y="470" />
            </Array>
          </mxGeometry>
        </mxCell>
        <mxCell id="6p9IiqKJaWgEn5XhOLN3-18" value="Continue" style="edgeLabel;html=1;align=center;verticalAlign=middle;resizable=0;points=[];fontSize=17;" vertex="1" connectable="0" parent="6p9IiqKJaWgEn5XhOLN3-9">
          <mxGeometry x="-0.0078" y="25" relative="1" as="geometry">
            <mxPoint as="offset" />
          </mxGeometry>
        </mxCell>
        <mxCell id="6p9IiqKJaWgEn5XhOLN3-10" value="" style="curved=1;endArrow=classic;html=1;rounded=0;exitX=0;exitY=1;exitDx=0;exitDy=0;entryX=1;entryY=1;entryDx=0;entryDy=0;" edge="1" parent="1" source="6p9IiqKJaWgEn5XhOLN3-5" target="6p9IiqKJaWgEn5XhOLN3-7">
          <mxGeometry width="50" height="50" relative="1" as="geometry">
            <mxPoint x="370" y="430" as="sourcePoint" />
            <mxPoint x="420" y="380" as="targetPoint" />
            <Array as="points">
              <mxPoint x="570" y="520" />
              <mxPoint x="420" y="550" />
              <mxPoint x="280" y="520" />
            </Array>
          </mxGeometry>
        </mxCell>
        <mxCell id="6p9IiqKJaWgEn5XhOLN3-17" value="Pause" style="edgeLabel;html=1;align=center;verticalAlign=middle;resizable=0;points=[];fontSize=17;" vertex="1" connectable="0" parent="6p9IiqKJaWgEn5XhOLN3-10">
          <mxGeometry x="-0.0659" y="-4" relative="1" as="geometry">
            <mxPoint as="offset" />
          </mxGeometry>
        </mxCell>
        <mxCell id="6p9IiqKJaWgEn5XhOLN3-11" value="" style="curved=1;endArrow=classic;html=1;rounded=0;exitX=0.162;exitY=0.107;exitDx=0;exitDy=0;exitPerimeter=0;" edge="1" parent="1" source="6p9IiqKJaWgEn5XhOLN3-7" target="6p9IiqKJaWgEn5XhOLN3-3">
          <mxGeometry width="50" height="50" relative="1" as="geometry">
            <mxPoint x="105" y="190" as="sourcePoint" />
            <mxPoint x="155" y="140" as="targetPoint" />
            <Array as="points">
              <mxPoint x="50" y="220" />
              <mxPoint x="170" y="180" />
            </Array>
          </mxGeometry>
        </mxCell>
        <mxCell id="6p9IiqKJaWgEn5XhOLN3-13" value="&lt;font style=&quot;font-size: 17px&quot;&gt;Stop&lt;br&gt;&lt;/font&gt;" style="edgeLabel;html=1;align=center;verticalAlign=middle;resizable=0;points=[];rotation=-40;" vertex="1" connectable="0" parent="6p9IiqKJaWgEn5XhOLN3-11">
          <mxGeometry x="0.1646" y="-4" relative="1" as="geometry">
            <mxPoint x="-34" y="14" as="offset" />
          </mxGeometry>
        </mxCell>
        <mxCell id="6p9IiqKJaWgEn5XhOLN3-12" value="" style="curved=1;endArrow=classic;html=1;rounded=0;entryX=1;entryY=0.5;entryDx=0;entryDy=0;exitX=1;exitY=0;exitDx=0;exitDy=0;" edge="1" parent="1" source="6p9IiqKJaWgEn5XhOLN3-5" target="6p9IiqKJaWgEn5XhOLN3-3">
          <mxGeometry width="50" height="50" relative="1" as="geometry">
            <mxPoint x="710" y="60" as="sourcePoint" />
            <mxPoint x="780" y="230" as="targetPoint" />
            <Array as="points">
              <mxPoint x="800" y="240" />
              <mxPoint x="690" y="180" />
            </Array>
          </mxGeometry>
        </mxCell>
        <mxCell id="6p9IiqKJaWgEn5XhOLN3-14" value="Stop" style="edgeLabel;html=1;align=center;verticalAlign=middle;resizable=0;points=[];fontSize=17;rotation=50;" vertex="1" connectable="0" parent="6p9IiqKJaWgEn5XhOLN3-12">
          <mxGeometry x="-0.0179" y="-9" relative="1" as="geometry">
            <mxPoint y="13" as="offset" />
          </mxGeometry>
        </mxCell>
      </root>
    </mxGraphModel>
  </diagram>
  <diagram id="CAfGnNDGaBbe-8M2Laei" name="State 1 (Stopped)">
    <mxGraphModel dx="1221" dy="644" grid="1" gridSize="10" guides="1" tooltips="1" connect="1" arrows="1" fold="1" page="1" pageScale="1" pageWidth="850" pageHeight="1100" math="0" shadow="0">
      <root>
        <mxCell id="-txIwRFJLaiFTXK-DuSM-0" />
        <mxCell id="-txIwRFJLaiFTXK-DuSM-1" parent="-txIwRFJLaiFTXK-DuSM-0" />
        <mxCell id="YFVdn8VKrXiTatQN0eKi-2" value="" style="ellipse;html=1;shape=startState;fillColor=#000000;strokeColor=#ff0000;fontSize=17;" vertex="1" parent="-txIwRFJLaiFTXK-DuSM-1">
          <mxGeometry x="410" y="10" width="30" height="30" as="geometry" />
        </mxCell>
        <mxCell id="YFVdn8VKrXiTatQN0eKi-3" value="" style="edgeStyle=orthogonalEdgeStyle;html=1;verticalAlign=bottom;endArrow=open;endSize=8;strokeColor=#ff0000;rounded=0;fontSize=17;entryX=0.5;entryY=0;entryDx=0;entryDy=0;" edge="1" source="YFVdn8VKrXiTatQN0eKi-2" parent="-txIwRFJLaiFTXK-DuSM-1" target="YFVdn8VKrXiTatQN0eKi-4">
          <mxGeometry relative="1" as="geometry">
            <mxPoint x="440" y="90" as="targetPoint" />
          </mxGeometry>
        </mxCell>
        <mxCell id="YFVdn8VKrXiTatQN0eKi-4" value="State 1.1&lt;br&gt;Setting Time Control" style="ellipse;whiteSpace=wrap;html=1;fontSize=17;" vertex="1" parent="-txIwRFJLaiFTXK-DuSM-1">
          <mxGeometry x="313" y="110" width="225" height="180" as="geometry" />
        </mxCell>
      </root>
    </mxGraphModel>
  </diagram>
  <diagram id="Cs9p8uj0RLDAd_ZLCo8f" name="State 1 (Running)">
    <mxGraphModel dx="1038" dy="547" grid="1" gridSize="10" guides="1" tooltips="1" connect="1" arrows="1" fold="1" page="1" pageScale="1" pageWidth="850" pageHeight="1100" math="0" shadow="0">
      <root>
        <mxCell id="fMtbFnhTlNNW42HT_F6d-0" />
        <mxCell id="fMtbFnhTlNNW42HT_F6d-1" parent="fMtbFnhTlNNW42HT_F6d-0" />
      </root>
    </mxGraphModel>
  </diagram>
  <diagram id="cbZZSI8bf78RgDqhq8dD" name="State 2 (Paused)">
    <mxGraphModel dx="1038" dy="547" grid="1" gridSize="10" guides="1" tooltips="1" connect="1" arrows="1" fold="1" page="1" pageScale="1" pageWidth="850" pageHeight="1100" math="0" shadow="0">
      <root>
        <mxCell id="ZC4r3tlZDz7Ox-TKYUc0-0" />
        <mxCell id="ZC4r3tlZDz7Ox-TKYUc0-1" parent="ZC4r3tlZDz7Ox-TKYUc0-0" />
      </root>
    </mxGraphModel>
  </diagram>
</mxfile>
